<svg version="1.2" baseProfile="tiny" xmlns="http://www.w3.org/2000/svg" viewBox="0 0 307 63" overflow="visible" xml:space="preserve"><g stroke="#FFF" stroke-width="2" stroke-miterlimit="10"><path fill="#A7F3D0" d="M12.29 13.51h40.49v8.1H12.29z"/><path fill="#047857" d="M53.29 22.1h-41.5V13h41.49v9.1zm-40.5-1h39.49V14H12.79v7.1z"/><path fill="#34D399" d="M12.29 21.6h10.12v9.3H12.29z"/><path fill="#047857" d="M22.92 31.4H11.79V21.1h11.12v10.3zm-10.13-1h9.12v-8.3h-9.12v8.3z"/><path fill="#34D399" d="M22.42 21.6h10.12v9.3H22.42z"/><path fill="#047857" d="M33.04 31.4H21.92V21.1h11.12v10.3zm-10.12-1h9.12v-8.3h-9.12v8.3z"/><path fill="#34D399" d="M32.54 21.6h10.12v9.3H32.54z"/><path fill="#047857" d="M43.16 31.4H32.04V21.1h11.12v10.3zm-10.12-1h9.12v-8.3h-9.12v8.3z"/><path fill="#34D399" d="M42.66 21.6h10.12v9.3H42.66z"/><path fill="#047857" d="M53.29 31.4H42.16V21.1h11.12v10.3zm-10.13-1h9.12v-8.3h-9.12v8.3z"/><path fill="#A7F3D0" d="M12.29 30.9h10.12v9.3H12.29z"/><path fill="#047857" d="M22.92 40.7H11.79V30.4h11.12v10.3zm-10.13-1h9.12v-8.3h-9.12v8.3z"/><path fill="#A7F3D0" d="M32.54 30.9h10.12v9.3H32.54z"/><path fill="#047857" d="M43.16 40.7H32.04V30.4h11.12v10.3zm-10.12-1h9.12v-8.3h-9.12v8.3z"/><g><path fill="#A7F3D0" d="M42.66 30.9h10.12v9.3H42.66z"/><path fill="#047857" d="M53.29 40.7H42.16V30.4h11.12v10.3zm-10.13-1h9.12v-8.3h-9.12v8.3z"/></g><g><path fill="#34D399" d="M12.29 40.2h10.12v9.3H12.29z"/><path fill="#047857" d="M22.92 49.99H11.79V39.7h11.12v10.29zm-10.13-1h9.12v-8.3h-9.12v8.3z"/></g><g><path fill="#34D399" d="M22.42 40.2h10.12v9.3H22.42z"/><path fill="#047857" d="M33.04 49.99H21.92V39.7h11.12v10.29zm-10.12-1h9.12v-8.3h-9.12v8.3z"/></g><g><path fill="#34D399" d="M32.54 40.2h10.12v9.3H32.54z"/><path fill="#047857" d="M43.16 49.99H32.04V39.7h11.12v10.29zm-10.12-1h9.12v-8.3h-9.12v8.3z"/></g><g><path fill="#34D399" d="M42.66 40.2h10.12v9.3H42.66z"/><path fill="#047857" d="M53.29 49.99H42.16V39.7h11.12v10.29zm-10.13-1h9.12v-8.3h-9.12v8.3z"/></g><g><path fill="#FDA4AF" d="M22.42 30.9h10.12v9.3H22.42z"/><path fill="#E11D48" d="M33.04 40.7H21.92V30.4h11.12v10.3zm-10.12-1h9.12v-8.3h-9.12v8.3z"/></g><g><path d="M77.77 40.11h11.3v5.65H70.69V15.28h7.07v24.83zM107.39 45.76c-.61 0-1.08-.08-1.39-.25s-.58-.52-.78-1.05l-.46-1.19c-.54.46-1.07.86-1.57 1.21s-1.02.65-1.56.89-1.11.42-1.72.54c-.61.12-1.28.18-2.02.18-.99 0-1.89-.13-2.7-.39-.81-.26-1.5-.64-2.06-1.14s-1-1.13-1.31-1.88c-.31-.75-.46-1.61-.46-2.59 0-.77.2-1.56.59-2.37s1.07-1.55 2.03-2.21c.96-.66 2.26-1.22 3.89-1.67 1.63-.45 3.69-.67 6.17-.67v-.93c0-1.28-.26-2.21-.78-2.78-.52-.57-1.27-.86-2.23-.86-.77 0-1.39.08-1.88.25s-.92.36-1.31.56c-.38.21-.76.4-1.12.57-.36.17-.8.25-1.3.25-.45 0-.83-.11-1.14-.32a2.39 2.39 0 0 1-.74-.81l-1.17-2.03c1.31-1.16 2.77-2.02 4.36-2.58 1.6-.56 3.31-.85 5.14-.85 1.31 0 2.49.21 3.55.64s1.95 1.02 2.68 1.78c.73.76 1.29 1.66 1.68 2.71.39 1.05.59 2.19.59 3.43v13.56h-2.98zm-7.45-3.95c.84 0 1.57-.15 2.2-.44.63-.29 1.26-.77 1.9-1.42v-2.97c-1.3 0-2.36.08-3.2.25-.84.17-1.5.38-1.99.63s-.83.54-1.01.87c-.19.32-.28.67-.28 1.05 0 .75.2 1.27.61 1.57.4.31.99.46 1.77.46zM114.96 45.76v-21.7h3.85c.32 0 .59.03.81.08.22.06.4.14.54.26.15.12.26.28.33.47.08.2.14.43.2.71l.36 2.03c.79-1.23 1.69-2.2 2.68-2.91s2.07-1.07 3.24-1.07c.99 0 1.79.24 2.38.71l-.84 4.77c-.06.29-.17.5-.33.62-.17.12-.39.18-.67.18-.24 0-.52-.03-.84-.09-.32-.06-.73-.09-1.21-.09-1.7 0-3.04.91-4.02 2.72v13.31h-6.48zM146.81 45.76c-.61 0-1.08-.08-1.39-.25s-.58-.52-.78-1.05l-.46-1.19c-.54.46-1.07.86-1.57 1.21s-1.02.65-1.56.89-1.11.42-1.72.54c-.61.12-1.28.18-2.02.18-.99 0-1.89-.13-2.7-.39-.81-.26-1.5-.64-2.06-1.14s-1-1.13-1.31-1.88c-.31-.75-.46-1.61-.46-2.59 0-.77.2-1.56.59-2.37s1.07-1.55 2.03-2.21c.96-.66 2.26-1.22 3.89-1.67 1.63-.45 3.69-.67 6.17-.67v-.93c0-1.28-.26-2.21-.78-2.78-.52-.57-1.27-.86-2.23-.86-.77 0-1.39.08-1.88.25s-.92.36-1.31.56c-.38.21-.76.4-1.12.57-.36.17-.8.25-1.3.25-.45 0-.83-.11-1.14-.32a2.39 2.39 0 0 1-.74-.81l-1.17-2.03c1.31-1.16 2.77-2.02 4.36-2.58 1.6-.56 3.31-.85 5.14-.85 1.31 0 2.49.21 3.55.64s1.95 1.02 2.68 1.78c.73.76 1.29 1.66 1.68 2.71.39 1.05.59 2.19.59 3.43v13.56h-2.98zm-7.45-3.95c.84 0 1.57-.15 2.2-.44.63-.29 1.26-.77 1.9-1.42v-2.97c-1.3 0-2.36.08-3.2.25-.84.17-1.5.38-1.99.63s-.83.54-1.01.87c-.19.32-.28.67-.28 1.05 0 .75.2 1.27.61 1.57.39.31.99.46 1.77.46zM165.55 45.76h-5.9l-8.41-21.7h5.4c.46 0 .85.11 1.16.32.31.22.53.48.64.81l3.01 9.73c.24.79.46 1.57.68 2.32.21.75.4 1.51.55 2.26.15-.75.34-1.51.57-2.26.22-.75.46-1.53.71-2.32l3.14-9.73c.11-.32.32-.59.63-.81.31-.22.67-.32 1.09-.32h5.15l-8.42 21.7zM185.14 23.73c1.44 0 2.75.22 3.94.67s2.22 1.09 3.08 1.95 1.53 1.89 2.01 3.13.72 2.63.72 4.2c0 .49-.02.89-.06 1.19-.04.31-.12.55-.23.73-.11.18-.26.31-.45.38s-.43.11-.72.11h-12.51c.21 1.81.76 3.13 1.65 3.94.89.82 2.04 1.22 3.45 1.22.75 0 1.4-.09 1.95-.27.54-.18 1.03-.38 1.45-.61.43-.22.82-.43 1.17-.61.36-.18.73-.27 1.12-.27.52 0 .91.19 1.17.56l1.88 2.32c-.67.77-1.39 1.39-2.17 1.87s-1.57.86-2.38 1.13c-.82.27-1.63.46-2.45.56s-1.59.16-2.33.16c-1.52 0-2.95-.25-4.28-.74s-2.5-1.23-3.49-2.21-1.79-2.19-2.36-3.64c-.58-1.45-.87-3.14-.87-5.06 0-1.45.25-2.83.74-4.12.49-1.3 1.21-2.43 2.13-3.41.93-.98 2.05-1.75 3.37-2.32 1.32-.57 2.81-.86 4.47-.86zm.12 4.48c-1.24 0-2.21.35-2.91 1.06-.7.7-1.16 1.72-1.38 3.04h8.1c0-.52-.07-1.02-.2-1.51a3.66 3.66 0 0 0-.65-1.31c-.3-.38-.69-.69-1.18-.93s-1.08-.35-1.78-.35zM205.3 14.44v31.32h-6.49V14.44h6.49zM240.87 39.57c.22 0 .43.09.61.27l1.59 1.74a12.97 12.97 0 0 1-4.47 3.33c-1.75.79-3.86 1.19-6.33 1.19-2.16 0-4.12-.37-5.88-1.12-1.76-.75-3.26-1.79-4.5-3.14-1.24-1.35-2.2-2.96-2.89-4.84s-1.03-3.95-1.03-6.21.37-4.33 1.1-6.21 1.76-3.5 3.09-4.85c1.33-1.35 2.91-2.4 4.76-3.15 1.85-.75 3.89-1.12 6.12-1.12 2.2 0 4.1.34 5.7 1.03 1.6.68 3.02 1.61 4.26 2.78l-1.32 1.86c-.1.14-.21.25-.33.35s-.31.14-.54.14c-.18 0-.37-.07-.58-.2-.2-.13-.44-.3-.72-.49-.28-.2-.61-.4-.98-.63-.38-.22-.82-.43-1.34-.63-.52-.19-1.12-.36-1.8-.49s-1.47-.2-2.36-.2c-1.6 0-3.07.28-4.4.83s-2.48 1.33-3.44 2.35-1.71 2.26-2.25 3.72c-.54 1.46-.81 3.1-.81 4.92 0 1.87.27 3.54.81 5s1.27 2.7 2.2 3.71a9.357 9.357 0 0 0 3.29 2.31c1.27.53 2.64.79 4.1.79.89 0 1.69-.05 2.41-.16.71-.1 1.37-.27 1.98-.49a8.44 8.44 0 0 0 1.7-.85c.52-.34 1.05-.75 1.58-1.22.22-.21.45-.32.67-.32zM263.76 20.47c-.12.21-.26.37-.4.47s-.32.16-.54.16c-.24 0-.51-.12-.83-.36-.31-.24-.71-.5-1.19-.78-.48-.29-1.06-.55-1.74-.78s-1.5-.36-2.46-.36c-.91 0-1.71.12-2.41.37-.7.24-1.28.58-1.75.99-.47.42-.82.91-1.06 1.47-.24.57-.36 1.18-.36 1.83 0 .84.21 1.53.62 2.08s.96 1.02 1.63 1.41 1.44.73 2.3 1.01 1.74.58 2.64.89c.9.31 1.78.65 2.64 1.04s1.62.87 2.3 1.45c.68.59 1.22 1.3 1.63 2.16.41.85.62 1.9.62 3.14 0 1.31-.22 2.54-.67 3.69s-1.1 2.15-1.96 3c-.86.85-1.91 1.52-3.16 2.01-1.25.49-2.67.73-4.26.73-1.94 0-3.71-.35-5.3-1.06-1.6-.7-2.96-1.66-4.09-2.86l1.17-1.92c.11-.15.25-.28.41-.39s.34-.16.53-.16c.29 0 .63.16 1 .47.38.31.85.66 1.41 1.04.56.38 1.25.72 2.05 1.04.8.31 1.78.47 2.94.47.96 0 1.82-.13 2.57-.4.75-.26 1.39-.64 1.91-1.12s.92-1.06 1.2-1.73c.28-.67.42-1.42.42-2.24 0-.91-.21-1.65-.62-2.23-.41-.58-.95-1.06-1.62-1.45s-1.43-.72-2.29-.99c-.86-.27-1.74-.55-2.64-.84-.9-.29-1.78-.62-2.64-.99a8.6 8.6 0 0 1-2.29-1.46c-.67-.6-1.21-1.35-1.62-2.25-.41-.9-.62-2.01-.62-3.34a8.03 8.03 0 0 1 2.41-5.72c.78-.77 1.75-1.38 2.9-1.84s2.47-.69 3.96-.69c1.67 0 3.2.27 4.58.79a10.6 10.6 0 0 1 3.62 2.3l-.94 1.95zM267.11 15.78h3.24c.36 0 .66.09.88.27.22.18.39.41.5.69l8.47 21.15c.2.47.37.99.53 1.55s.32 1.14.47 1.74c.13-.6.26-1.18.41-1.74s.32-1.07.51-1.55l8.43-21.15c.1-.24.26-.46.5-.66s.53-.3.88-.3h3.26l-12.22 29.98h-3.66l-12.2-29.98z"/></g></g><path fill="#A7F3D0" d="M12.29 13.51h40.49v8.1H12.29z"/><path fill="#047857" d="M53.29 22.1h-41.5V13h41.49v9.1zm-40.5-1h39.49V14H12.79v7.1z"/><path fill="#34D399" d="M12.29 21.6h10.12v9.3H12.29z"/><path fill="#047857" d="M22.92 31.4H11.79V21.1h11.12v10.3zm-10.13-1h9.12v-8.3h-9.12v8.3z"/><path fill="#34D399" d="M22.42 21.6h10.12v9.3H22.42z"/><path fill="#047857" d="M33.04 31.4H21.92V21.1h11.12v10.3zm-10.12-1h9.12v-8.3h-9.12v8.3z"/><path fill="#34D399" d="M32.54 21.6h10.12v9.3H32.54z"/><path fill="#047857" d="M43.16 31.4H32.04V21.1h11.12v10.3zm-10.12-1h9.12v-8.3h-9.12v8.3z"/><path fill="#34D399" d="M42.66 21.6h10.12v9.3H42.66z"/><path fill="#047857" d="M53.29 31.4H42.16V21.1h11.12v10.3zm-10.13-1h9.12v-8.3h-9.12v8.3z"/><path fill="#A7F3D0" d="M12.29 30.9h10.12v9.3H12.29z"/><path fill="#047857" d="M22.92 40.7H11.79V30.4h11.12v10.3zm-10.13-1h9.12v-8.3h-9.12v8.3z"/><path fill="#A7F3D0" d="M32.54 30.9h10.12v9.3H32.54z"/><path fill="#047857" d="M43.16 40.7H32.04V30.4h11.12v10.3zm-10.12-1h9.12v-8.3h-9.12v8.3z"/><g><path fill="#A7F3D0" d="M42.66 30.9h10.12v9.3H42.66z"/><path fill="#047857" d="M53.29 40.7H42.16V30.4h11.12v10.3zm-10.13-1h9.12v-8.3h-9.12v8.3z"/></g><g><path fill="#34D399" d="M12.29 40.2h10.12v9.3H12.29z"/><path fill="#047857" d="M22.92 49.99H11.79V39.7h11.12v10.29zm-10.13-1h9.12v-8.3h-9.12v8.3z"/></g><g><path fill="#34D399" d="M22.42 40.2h10.12v9.3H22.42z"/><path fill="#047857" d="M33.04 49.99H21.92V39.7h11.12v10.29zm-10.12-1h9.12v-8.3h-9.12v8.3z"/></g><g><path fill="#34D399" d="M32.54 40.2h10.12v9.3H32.54z"/><path fill="#047857" d="M43.16 49.99H32.04V39.7h11.12v10.29zm-10.12-1h9.12v-8.3h-9.12v8.3z"/></g><g><path fill="#34D399" d="M42.66 40.2h10.12v9.3H42.66z"/><path fill="#047857" d="M53.29 49.99H42.16V39.7h11.12v10.29zm-10.13-1h9.12v-8.3h-9.12v8.3z"/></g><g><path fill="#FDA4AF" d="M22.42 30.9h10.12v9.3H22.42z"/><path fill="#E11D48" d="M33.04 40.7H21.92V30.4h11.12v10.3zm-10.12-1h9.12v-8.3h-9.12v8.3z"/></g><g><path d="M77.77 40.11h11.3v5.65H70.69V15.28h7.07v24.83zM107.39 45.76c-.61 0-1.08-.08-1.39-.25s-.58-.52-.78-1.05l-.46-1.19c-.54.46-1.07.86-1.57 1.21s-1.02.65-1.56.89-1.11.42-1.72.54c-.61.12-1.28.18-2.02.18-.99 0-1.89-.13-2.7-.39-.81-.26-1.5-.64-2.06-1.14s-1-1.13-1.31-1.88c-.31-.75-.46-1.61-.46-2.59 0-.77.2-1.56.59-2.37s1.07-1.55 2.03-2.21c.96-.66 2.26-1.22 3.89-1.67 1.63-.45 3.69-.67 6.17-.67v-.93c0-1.28-.26-2.21-.78-2.78-.52-.57-1.27-.86-2.23-.86-.77 0-1.39.08-1.88.25s-.92.36-1.31.56c-.38.21-.76.4-1.12.57-.36.17-.8.25-1.3.25-.45 0-.83-.11-1.14-.32a2.39 2.39 0 0 1-.74-.81l-1.17-2.03c1.31-1.16 2.77-2.02 4.36-2.58 1.6-.56 3.31-.85 5.14-.85 1.31 0 2.49.21 3.55.64s1.95 1.02 2.68 1.78c.73.76 1.29 1.66 1.68 2.71.39 1.05.59 2.19.59 3.43v13.56h-2.98zm-7.45-3.95c.84 0 1.57-.15 2.2-.44.63-.29 1.26-.77 1.9-1.42v-2.97c-1.3 0-2.36.08-3.2.25-.84.17-1.5.38-1.99.63s-.83.54-1.01.87c-.19.32-.28.67-.28 1.05 0 .75.2 1.27.61 1.57.4.31.99.46 1.77.46zM114.96 45.76v-21.7h3.85c.32 0 .59.03.81.08.22.06.4.14.54.26.15.12.26.28.33.47.08.2.14.43.2.71l.36 2.03c.79-1.23 1.69-2.2 2.68-2.91s2.07-1.07 3.24-1.07c.99 0 1.79.24 2.38.71l-.84 4.77c-.06.29-.17.5-.33.62-.17.12-.39.18-.67.18-.24 0-.52-.03-.84-.09-.32-.06-.73-.09-1.21-.09-1.7 0-3.04.91-4.02 2.72v13.31h-6.48zM146.81 45.76c-.61 0-1.08-.08-1.39-.25s-.58-.52-.78-1.05l-.46-1.19c-.54.46-1.07.86-1.57 1.21s-1.02.65-1.56.89-1.11.42-1.72.54c-.61.12-1.28.18-2.02.18-.99 0-1.89-.13-2.7-.39-.81-.26-1.5-.64-2.06-1.14s-1-1.13-1.31-1.88c-.31-.75-.46-1.61-.46-2.59 0-.77.2-1.56.59-2.37s1.07-1.55 2.03-2.21c.96-.66 2.26-1.22 3.89-1.67 1.63-.45 3.69-.67 6.17-.67v-.93c0-1.28-.26-2.21-.78-2.78-.52-.57-1.27-.86-2.23-.86-.77 0-1.39.08-1.88.25s-.92.36-1.31.56c-.38.21-.76.4-1.12.57-.36.17-.8.25-1.3.25-.45 0-.83-.11-1.14-.32a2.39 2.39 0 0 1-.74-.81l-1.17-2.03c1.31-1.16 2.77-2.02 4.36-2.58 1.6-.56 3.31-.85 5.14-.85 1.31 0 2.49.21 3.55.64s1.95 1.02 2.68 1.78c.73.76 1.29 1.66 1.68 2.71.39 1.05.59 2.19.59 3.43v13.56h-2.98zm-7.45-3.95c.84 0 1.57-.15 2.2-.44.63-.29 1.26-.77 1.9-1.42v-2.97c-1.3 0-2.36.08-3.2.25-.84.17-1.5.38-1.99.63s-.83.54-1.01.87c-.19.32-.28.67-.28 1.05 0 .75.2 1.27.61 1.57.39.31.99.46 1.77.46zM165.55 45.76h-5.9l-8.41-21.7h5.4c.46 0 .85.11 1.16.32.31.22.53.48.64.81l3.01 9.73c.24.79.46 1.57.68 2.32.21.75.4 1.51.55 2.26.15-.75.34-1.51.57-2.26.22-.75.46-1.53.71-2.32l3.14-9.73c.11-.32.32-.59.63-.81.31-.22.67-.32 1.09-.32h5.15l-8.42 21.7zM185.14 23.73c1.44 0 2.75.22 3.94.67s2.22 1.09 3.08 1.95 1.53 1.89 2.01 3.13.72 2.63.72 4.2c0 .49-.02.89-.06 1.19-.04.31-.12.55-.23.73-.11.18-.26.31-.45.38s-.43.11-.72.11h-12.51c.21 1.81.76 3.13 1.65 3.94.89.82 2.04 1.22 3.45 1.22.75 0 1.4-.09 1.95-.27.54-.18 1.03-.38 1.45-.61.43-.22.82-.43 1.17-.61.36-.18.73-.27 1.12-.27.52 0 .91.19 1.17.56l1.88 2.32c-.67.77-1.39 1.39-2.17 1.87s-1.57.86-2.38 1.13c-.82.27-1.63.46-2.45.56s-1.59.16-2.33.16c-1.52 0-2.95-.25-4.28-.74s-2.5-1.23-3.49-2.21-1.79-2.19-2.36-3.64c-.58-1.45-.87-3.14-.87-5.06 0-1.45.25-2.83.74-4.12.49-1.3 1.21-2.43 2.13-3.41.93-.98 2.05-1.75 3.37-2.32 1.32-.57 2.81-.86 4.47-.86zm.12 4.48c-1.24 0-2.21.35-2.91 1.06-.7.7-1.16 1.72-1.38 3.04h8.1c0-.52-.07-1.02-.2-1.51a3.66 3.66 0 0 0-.65-1.31c-.3-.38-.69-.69-1.18-.93s-1.08-.35-1.78-.35zM205.3 14.44v31.32h-6.49V14.44h6.49zM240.87 39.57c.22 0 .43.09.61.27l1.59 1.74a12.97 12.97 0 0 1-4.47 3.33c-1.75.79-3.86 1.19-6.33 1.19-2.16 0-4.12-.37-5.88-1.12-1.76-.75-3.26-1.79-4.5-3.14-1.24-1.35-2.2-2.96-2.89-4.84s-1.03-3.95-1.03-6.21.37-4.33 1.1-6.21 1.76-3.5 3.09-4.85c1.33-1.35 2.91-2.4 4.76-3.15 1.85-.75 3.89-1.12 6.12-1.12 2.2 0 4.1.34 5.7 1.03 1.6.68 3.02 1.61 4.26 2.78l-1.32 1.86c-.1.14-.21.25-.33.35s-.31.14-.54.14c-.18 0-.37-.07-.58-.2-.2-.13-.44-.3-.72-.49-.28-.2-.61-.4-.98-.63-.38-.22-.82-.43-1.34-.63-.52-.19-1.12-.36-1.8-.49s-1.47-.2-2.36-.2c-1.6 0-3.07.28-4.4.83s-2.48 1.33-3.44 2.35-1.71 2.26-2.25 3.72c-.54 1.46-.81 3.1-.81 4.92 0 1.87.27 3.54.81 5s1.27 2.7 2.2 3.71a9.357 9.357 0 0 0 3.29 2.31c1.27.53 2.64.79 4.1.79.89 0 1.69-.05 2.41-.16.71-.1 1.37-.27 1.98-.49a8.44 8.44 0 0 0 1.7-.85c.52-.34 1.05-.75 1.58-1.22.22-.21.45-.32.67-.32zM263.76 20.47c-.12.21-.26.37-.4.47s-.32.16-.54.16c-.24 0-.51-.12-.83-.36-.31-.24-.71-.5-1.19-.78-.48-.29-1.06-.55-1.74-.78s-1.5-.36-2.46-.36c-.91 0-1.71.12-2.41.37-.7.24-1.28.58-1.75.99-.47.42-.82.91-1.06 1.47-.24.57-.36 1.18-.36 1.83 0 .84.21 1.53.62 2.08s.96 1.02 1.63 1.41 1.44.73 2.3 1.01 1.74.58 2.64.89c.9.31 1.78.65 2.64 1.04s1.62.87 2.3 1.45c.68.59 1.22 1.3 1.63 2.16.41.85.62 1.9.62 3.14 0 1.31-.22 2.54-.67 3.69s-1.1 2.15-1.96 3c-.86.85-1.91 1.52-3.16 2.01-1.25.49-2.67.73-4.26.73-1.94 0-3.71-.35-5.3-1.06-1.6-.7-2.96-1.66-4.09-2.86l1.17-1.92c.11-.15.25-.28.41-.39s.34-.16.53-.16c.29 0 .63.16 1 .47.38.31.85.66 1.41 1.04.56.38 1.25.72 2.05 1.04.8.31 1.78.47 2.94.47.96 0 1.82-.13 2.57-.4.75-.26 1.39-.64 1.91-1.12s.92-1.06 1.2-1.73c.28-.67.42-1.42.42-2.24 0-.91-.21-1.65-.62-2.23-.41-.58-.95-1.06-1.62-1.45s-1.43-.72-2.29-.99c-.86-.27-1.74-.55-2.64-.84-.9-.29-1.78-.62-2.64-.99a8.6 8.6 0 0 1-2.29-1.46c-.67-.6-1.21-1.35-1.62-2.25-.41-.9-.62-2.01-.62-3.34a8.03 8.03 0 0 1 2.41-5.72c.78-.77 1.75-1.38 2.9-1.84s2.47-.69 3.96-.69c1.67 0 3.2.27 4.58.79a10.6 10.6 0 0 1 3.62 2.3l-.94 1.95zM267.11 15.78h3.24c.36 0 .66.09.88.27.22.18.39.41.5.69l8.47 21.15c.2.47.37.99.53 1.55s.32 1.14.47 1.74c.13-.6.26-1.18.41-1.74s.32-1.07.51-1.55l8.43-21.15c.1-.24.26-.46.5-.66s.53-.3.88-.3h3.26l-12.22 29.98h-3.66l-12.2-29.98z"/></g></svg>